<svg width="591" height="603" viewBox="0 0 591 603" fill="none" xmlns="http://www.w3.org/2000/svg">
<path d="M373.208 24.0001H566.877V221.924V221.94V221.955C566.911 248.015 561.892 273.814 552.119 297.865C542.381 321.832 528.12 343.578 510.173 361.874L508.85 363.159L508.701 363.303L508.554 363.451C503.765 368.265 498.746 372.804 493.522 377.055C482.698 385.826 471.011 393.371 458.672 399.577C461.29 365.302 456.86 330.68 445.473 297.969L445.47 297.959L445.466 297.949C429.57 252.415 400.787 212.624 362.671 183.635C320.238 151.183 268.412 133.891 215.251 134.529C209.831 134.593 204.418 134.84 199.023 135.268C208.095 116.231 220.194 98.6575 234.993 83.3233L236.455 81.8326L236.467 81.8206L236.479 81.8086C254.454 63.4299 275.788 48.8786 299.243 38.9673C322.697 29.0565 347.824 23.9742 373.184 24.0001L373.196 24.0001H373.208ZM291.864 453.656C325.27 465.77 360.771 470.222 395.847 466.845L394.956 470.331L406.9 467.165L354.559 520.53C321.57 554.116 277.91 574.399 231.589 577.794C194.41 580.519 157.42 572.225 124.97 554.158L245.795 431.029C260.283 440.223 275.727 447.814 291.864 453.656ZM82.4943 238.729L132.091 188.163L129.233 199.351L132.66 198.446C132.018 205.406 131.667 212.415 131.614 219.457C131.022 266.382 143.725 312.369 168.031 351.979L47.5025 474.864C29.9286 441.821 21.8249 404.125 24.5006 366.165C27.8508 318.638 47.8645 274.013 80.7624 240.421L82.0793 239.142L82.2894 238.938L82.4943 238.729Z" stroke="#DCDADA" stroke-width="48"/>
</svg>
